<?xml version="1.0" encoding="utf-8"?>
<!-- Generator: Adobe Illustrator 26.0.1, SVG Export Plug-In . SVG Version: 6.00 Build 0)  -->
<svg version="1.1" id="Layer_1" xmlns="http://www.w3.org/2000/svg" xmlns:xlink="http://www.w3.org/1999/xlink" x="0px" y="0px"
	 viewBox="0 0 164 38" style="enable-background:new 0 0 164 38;" xml:space="preserve">
<style type="text/css">
	.st0{fill:#FFFFFF;}
	.st1{fill:url(#SVGID_1_);}
	.st2{fill:none;stroke:#D0D5DD;stroke-width:0.2;}
	.st3{fill:url(#SVGID_00000024721554883207362180000010637407983240917128_);}
	.st4{opacity:0.6;fill:#AF6EA8;enable-background:new    ;}
	.st5{fill-rule:evenodd;clip-rule:evenodd;fill:#FFFFFF;}
	.st6{fill:url(#SVGID_00000025442862559347162990000013044186458460779140_);}
</style>
<path class="st0" d="M11,2.2h15.9c4.4,0,7.9,3.5,7.9,7.9V26c0,4.4-3.5,7.9-7.9,7.9H11c-4.4,0-7.9-3.5-7.9-7.9V10
	C3.1,5.7,6.6,2.2,11,2.2z"/>
<linearGradient id="SVGID_1_" gradientUnits="userSpaceOnUse" x1="18.95" y1="1043.0885" x2="18.95" y2="1074.9042" gradientTransform="matrix(1 0 0 1 0 -1040)">
	<stop  offset="0" style="stop-color:#FFFFFF"/>
	<stop  offset="1" style="stop-color:#D0D5DD"/>
</linearGradient>
<path class="st1" d="M11,3.2h15.9c4.4,0,7.9,3.5,7.9,7.9V27c0,4.4-3.5,7.9-7.9,7.9H11c-4.4,0-7.9-3.5-7.9-7.9V11
	C3.1,6.7,6.6,3.2,11,3.2z"/>
<path class="st2" d="M11,3.2h15.9c4.4,0,7.9,3.5,7.9,7.9V27c0,4.4-3.5,7.9-7.9,7.9H11c-4.4,0-7.9-3.5-7.9-7.9V11
	C3.1,6.7,6.6,3.2,11,3.2z"/>
<g>
	
		<linearGradient id="SVGID_00000096758981238995458480000009720425511248594587_" gradientUnits="userSpaceOnUse" x1="18.8409" y1="32.7417" x2="18.8409" y2="11.6291" gradientTransform="matrix(1 0 0 -1 0 40)">
		<stop  offset="0" style="stop-color:#7F366E"/>
		<stop  offset="1" style="stop-color:#B4529E"/>
	</linearGradient>
	<path style="fill:url(#SVGID_00000096758981238995458480000009720425511248594587_);" d="M32.1,21.7c0,0.6-0.1,1.3-0.3,1.9
		c-0.1,0.3-0.2,0.7-0.4,1c-0.1,0.3-0.2,0.5-0.4,0.8c-0.6,1-1.3,1.6-2.5,1.9c-0.8,0.2-1.5,0.2-2.3,0.2c-0.8,0-1.5,0-2.3,0.1
		c-0.7,0.1-1.4,0.2-2,0.3c-0.1,0-0.2,0.1-0.3,0.1c-0.4,0.1-0.8,0.2-1.2,0.3c-0.2,0.1-0.3,0.1-0.5,0.2c-0.4,0.2-0.9,0.3-1.3,0.5
		c-0.3,0.1-0.5,0.2-0.8,0.3c-0.1,0.1-0.3,0.1-0.4,0.2c-0.2,0.1-0.4,0.1-0.5,0.2c-0.7,0.2-1.3,0.5-2,0.6c-1.4,0.4-2.9,0.5-4.3-0.1
		c-0.7-0.3-1.4-0.7-2-1.3c-1.2-1.2-1.9-2.6-2.5-4.2c-0.3-0.9-0.5-1.9-0.6-2.8c0-0.1,0-0.1,0-0.2c0,0,0-0.1,0-0.2s0-0.1,0-0.2
		s-0.1-0.3,0-0.4v-0.6c0-0.1,0-0.3,0-0.4s0-0.2,0-0.3c0-0.1,0-0.1,0-0.2s0-0.1,0-0.2s0-0.1,0-0.2c0-0.5,0.1-0.9,0.2-1.3
		c0.1-0.5,0.2-0.9,0.4-1.4c0.5-1.4,1.2-2.7,2.1-3.9c0.4-0.6,1-1.1,1.5-1.6c0.2-0.2,0.4-0.3,0.5-0.5c0.2-0.2,0.4-0.3,0.6-0.4
		c0.5-0.4,1.1-0.8,1.7-1.1c1-0.5,1.9-0.9,3-1.1c1.2-0.3,2.4-0.4,3.7-0.4c1.6,0,3.2,0.4,4.7,1c0.5,0.2,1.1,0.5,1.6,0.8
		c0.6,0.4,1.1,0.8,1.7,1.2c0.4,0.4,0.8,0.7,1.2,1.1c0.8,0.8,1.4,1.7,2,2.6c0.6,1.1,1,2.2,1.3,3.4c0,0.2,0.1,0.4,0.1,0.5
		c0,0,0,0,0,0.1c0.1,0.5,0.1,0.9,0.2,1.4c0,0.1,0,0.3,0,0.4s0,0.3,0,0.4C32.2,20.8,32.1,21.3,32.1,21.7z"/>
	<path class="st4" d="M23.8,23.8c0-0.1-0.1-0.2-0.1-0.2c-0.1-0.1-0.2-0.2-0.3-0.3c-0.2-0.1-0.4-0.1-0.5,0c-0.1,0.1-0.4,0.2-0.5,0.2
		l0,0c-0.1,0-0.4,0.1-0.5,0.2s-0.2,0.2-0.2,0.2S21.6,24,21.4,24c-0.1,0-0.1,0.1-0.2,0.1c-0.2,0.1-0.5,0.4-0.5,0.4s0,0,0-0.1v-0.1
		c0,0,0.1-0.1,0.1-0.2s0-0.1,0-0.2s-0.1-0.2-0.1-0.2s0,0,0-0.1s0-0.2,0-0.2c0-0.1,0-0.1,0-0.1s0-0.1,0-0.3c0-0.1,0-0.3,0.1-0.4
		c0-0.3,0.1-0.7,0.1-0.8c0.1-0.2,0.2-0.8,0.2-1s0-0.2,0-0.2s0-0.1,0.1-0.3c0-0.1,0-0.3,0.1-0.5c0-0.1,0-0.2,0-0.2
		c0-0.3,0.1-0.5,0.2-0.7s0.4-1,0.5-1.4s0.2-0.9,0.3-1.2c0.1-0.4,0.1-1.1,0.1-1.2c0-0.1-0.1-0.2-0.2-0.3c-0.1-0.1-0.7-0.7-0.7-0.7
		s-1.1-0.9-1.3-1.1c-0.3-0.2-0.5-0.5-0.6-0.6c-0.1-0.2-0.1-0.3-0.1-0.3c0-0.1-0.1-0.3-0.1-0.5c0-0.1-0.1-0.2-0.1-0.3s0-0.4,0-0.4
		c0-0.1,0-0.2,0-0.3s0-0.1,0-0.2c0-0.1,0-0.3,0-0.3s0-0.1-0.1,0c-0.1,0-0.1,0.1-0.1,0.1s0-0.1-0.1-0.1c0,0-0.1,0-0.1,0.1
		s0,0.2,0,0.3s0,0.2-0.1,0.3c0,0.1-0.1,0.2-0.1,0.3s-0.1,0.3-0.2,0.4c0,0.1,0,0.2,0,0.3s0,0.2-0.1,0.4s-0.2,0.3-0.3,0.5
		c-0.1,0.1-0.7,0.5-0.9,0.7c-0.1,0.1-0.8,0.7-1,0.8c-0.1,0.1-0.4,0.4-0.5,0.5c-0.1,0.1-0.2,0.2-0.2,0.2s0,0.6,0,0.8
		c0,0.2,0.1,0.9,0.2,1.3c0.1,0.4,0.4,1,0.5,1.1c0.1,0.2,0.3,0.9,0.3,0.9s0,0.5,0,0.8l0,0c0,0.3,0.1,0.6,0.1,0.6l0,0l0.1,0.3
		c0,0,0.3,1.3,0.3,1.7v0.1c0,0.2,0.1,0.7,0.1,0.7s-0.1,0.2-0.1,0.3c0,0.2,0.1,0.2,0,0.3C17,23.9,17,24,17,24s-0.2-0.1-0.3-0.3
		l-0.1-0.1c-0.2-0.1-0.3-0.2-0.3-0.2s-0.1-0.1-0.1-0.2S16,23,15.9,23c0,0,0,0-0.1,0c-0.1-0.1-0.3-0.2-0.4-0.3C15.2,23,15,23,14.7,23
		c-0.2,0-0.5,0.2-0.6,0.5l0,0c-0.1,0.2,0,0.5,0.1,0.8c0,0.1,0.1,0.2,0.1,0.3l0,0c0.1,0.2,0.1,0.4,0.2,0.6l0.1,0.1
		c0.1,0.2,0.3,0.4,0.5,0.7c0.1,0.2,0.3,0.4,0.4,0.5c0.1,0.1,0.4,0.4,0.7,0.5c0.2,0.1,0.3,0.2,0.5,0.3c0.1,0.1,0.2,0.1,0.3,0.1
		c0.1,0.1,0.3,0.1,0.4,0.1c0.2,0,0.5,0,0.8,0c0.2,0,0.4,0,0.6-0.1c0.1,0,0.2,0,0.3,0h0.1l0,0h0.1c0.1,0,0.2,0,0.3,0l0,0
		c0.2,0,0.4,0,0.7,0c0.2,0,0.4,0,0.6,0c0.3,0,0.6-0.1,0.8-0.2c0.1,0,0.1-0.1,0.2-0.1c0.1-0.1,0.2-0.1,0.3-0.2l0,0
		c0.4-0.4,0.9-0.8,0.9-0.8c0.1-0.1,0.2-0.2,0.3-0.4c0.1-0.1,0.2-0.3,0.3-0.4c0-0.1,0.1-0.1,0.1-0.1c0.1-0.2,0.2-0.3,0.2-0.5
		c0-0.1,0-0.2,0.1-0.2c0-0.1,0.1-0.2,0.1-0.3C23.8,24.2,23.8,24,23.8,23.8z M16.5,15.7c0-0.1,0.2-0.4,0.4-0.6
		c0.2-0.2,0.7-0.9,0.9-1.1c0.2-0.2,0.8-0.9,0.9-0.9c0,0,0.1-0.1,0.2-0.1l0.1-0.2c0,0,0,0.1,0.1,0.1c0,0,0,0.1,0.1,0.1
		s0.1,0.1,0.2,0.2c0.1,0,0.3,0.3,0.5,0.6c0.2,0.2,1.2,1.4,1.3,1.5c0.1,0.1,0.3,0.4,0.3,0.5s-0.2,0.5-0.2,0.8
		c-0.1,0.2-0.2,0.8-0.2,0.9c-0.1,0.1-0.2,0.3-0.3,0.4c-0.1,0.1-0.2,0.3-0.2,0.3l0,0c-0.1,0.1-0.2,0.3-0.2,0.3
		c-0.1,0.1-0.1,0.1-0.1,0.1s-0.2,0-0.3,0c-0.1-0.1,0-0.1,0-0.3c0-0.1,0.1-0.6,0.1-0.6c0-0.1,0.2-0.4,0.2-0.4s0,0,0.1,0l0,0
		c0,0,0,0,0-0.1c0,0,0.1-0.2,0.1-0.3s0.1-0.3,0.1-0.4s0-0.1,0-0.1s0-0.3-0.1-0.6c-0.1-0.4-0.5-0.8-0.7-0.9c-0.1-0.1-0.2-0.1-0.3-0.1
		c-0.1,0-0.2-0.1-0.4-0.1c-0.2,0-0.4,0.1-0.7,0.3c-0.3,0.2-0.4,0.6-0.5,0.8c-0.1,0.2,0,0.7,0,0.7s-0.1,0,0,0.2
		c0,0.1,0.1,0.2,0.1,0.3c0,0.1,0.1,0.2,0.1,0.3l0.1,0.1l0,0v0.1l0.1,0.2l0.2,0.7c0,0.1,0,0.1,0,0.1h-0.3c0,0-0.1-0.1-0.2-0.3
		c0-0.1-0.1-0.1-0.1-0.2c-0.1-0.1-0.2-0.2-0.3-0.3c-0.1-0.1-0.3-0.4-0.4-0.5s-0.2-0.7-0.3-0.9C16.7,16.1,16.5,15.8,16.5,15.7z"/>
	<g>
		<path class="st0" d="M24.2,23.7c0-0.1,0-0.3-0.1-0.3c-0.1,0-0.3,0.2-0.3,0.2h-0.1c-0.1,0-0.4,0-0.4,0.1c-0.1,0.1-0.2,0.2-0.3,0.2
			c-0.1,0-0.3-0.2-0.6-0.3c-0.1-0.1-0.2-0.1-0.2-0.1c-0.2-0.1-0.4-0.2-0.4-0.2c0-0.1,0-0.7-0.1-0.8c0-0.2-0.2-0.6-0.2-0.8
			s0-1-0.1-1.3c0-0.1-0.1-0.2-0.1-0.2C21.2,20.1,21,20,20.8,20c-0.2,0-0.1-0.3-0.1-0.5c0-0.1,0-0.5-0.2-0.8
			c-0.1-0.1-0.1-0.3-0.2-0.4c-0.1-0.2-0.2-0.4-0.2-0.5s0-0.2-0.1-0.3c-0.1-0.3-0.2-0.7-0.5-0.8c-0.3-0.2-0.9-0.2-1.3,0
			c-0.3,0.1-0.4,0.6-0.5,0.9c0,0.1,0,0.1,0,0.2s-0.1,0.3-0.2,0.5c-0.1,0.1-0.1,0.3-0.2,0.4c-0.2,0.3-0.2,0.7-0.2,0.8
			c0,0.1,0.1,0.5-0.1,0.5s-0.4,0.1-0.5,0.3c0,0-0.1,0.1-0.1,0.2c-0.1,0.3-0.1,1.1-0.1,1.3c0,0.2-0.1,0.7-0.2,0.8
			c0,0.2,0,0.8-0.1,0.8c0,0.1-0.2,0.1-0.4,0.2c0,0,0,0-0.1,0C15.4,23.7,15,24,14.9,24c-0.1,0-0.2-0.1-0.3-0.2s-0.5-0.1-0.6-0.1l0,0
			c-0.1,0-0.2-0.2-0.3-0.2s-0.1,0.2-0.1,0.3c0,0.1-0.1,0.4-0.1,0.6c0.1,0.1,0.4,0.4,0.6,0.4c0,0,0,0,0.1,0l0,0
			c0.2,0,0.5-0.1,0.5-0.1s-0.1,0-0.2,0.2c-0.1,0.1-0.1,0.2-0.1,0.4c0,0.1,0,0.2,0.1,0.3c0,0.2,0.2,0.4,0.5,0.5
			c0.2,0.2,0.5,0.3,0.7,0.4c0.3,0.1,0.8,0.2,0.8,0.3c0,0.1-0.4,0.1-0.4,0.3l0,0c0,0.2,0.2,0.5,0.2,0.5c0,0.1,0,0.3,0.1,0.3
			c0,0,0,0,0.1,0c0.2,0,0.5-0.2,0.8-0.2c0.1,0,0.1,0,0.2,0s0.4,0,0.6,0s0.4,0,0.5,0h0.1c0.1,0,0.1-0.1,0.2-0.1
			c0.1-0.1,0.1-0.1,0.2-0.1s0.1,0,0.2,0.1c0.1,0,0.1,0.1,0.2,0.1l0,0h0.1c0.1,0,0.4,0,0.6,0s0.4-0.1,0.5,0h0.1
			c0.3,0.1,0.7,0.2,0.9,0.3c0,0,0,0,0.1,0c0.2,0,0.1-0.2,0.1-0.3c0-0.1,0.2-0.3,0.2-0.5l0,0c0,0,0,0,0-0.1c-0.1-0.1-0.4-0.2-0.4-0.3
			c0-0.1,0.5-0.2,0.8-0.3c0.2-0.1,0.6-0.3,0.8-0.6c0.1-0.1,0.3-0.3,0.3-0.4l0,0c0.1-0.3,0.1-0.5,0-0.7c-0.1-0.2-0.2-0.2-0.2-0.2
			s0.4,0.1,0.6,0.1l0,0c0.2,0,0.5-0.3,0.5-0.4C24.3,24.1,24.2,23.7,24.2,23.7z M15.8,24.3c0,0,0.5-0.1,0.6-0.1c0,0,0.1-0.1,0.2-0.1
			c0.1-0.1,0.3-0.3,0.3-0.4c0-0.2,0.1-0.5,0.1-0.6s0.1-0.2,0.1-0.3c0.1-0.2,0.1-0.4,0.1-0.5c0-0.2,0-0.4,0.1-0.4s0.1,0.4,0.1,0.6
			c0.1,0.2,0.2,0.9,0.2,1.3s-0.2,0.3-0.3,0.6c-0.1,0.3-0.1,0.5-0.2,0.5s-0.4-0.2-0.7-0.4C16.3,24.4,15.8,24.4,15.8,24.3z M21.4,24.5
			c-0.2,0.1-0.6,0.3-0.7,0.4c-0.1,0,0-0.2-0.2-0.5c-0.1-0.3-0.2-0.2-0.3-0.6c0-0.4,0.1-1.1,0.2-1.3c0.1-0.2,0.1-0.6,0.1-0.6
			c0.1,0,0.1,0.2,0.1,0.4c0,0.1,0.1,0.3,0.1,0.5c0,0.1,0.1,0.3,0.1,0.3c0.1,0.1,0.1,0.4,0.1,0.6s0.2,0.3,0.3,0.4
			c0.1,0.1,0.1,0.1,0.2,0.1c0.1,0.1,0.6,0.1,0.6,0.1C22.1,24.4,21.6,24.4,21.4,24.5z"/>
	</g>
	<g>
		<g>
			<g>
				<path class="st0" d="M11.9,21.1L11.9,21.1c-0.2,0-0.3,0-0.4-0.1c-0.1,0,0,0,0-0.1c0,0,0,0,0-0.1c0.1,0,0.1-0.1,0.2-0.1
					s0.1-0.1,0.2,0l0,0c0,0,0,0,0.1,0l0,0c0-0.1-0.1-0.2-0.1-0.3c0-0.2,0-0.4,0.1-0.6c0.1-0.1,0.1-0.3,0.2-0.4v0.1
					c0,0.1-0.1,0.3-0.1,0.4s0,0.1,0,0.2l0,0c0.1,0,0.1-0.1,0.2-0.1c0.1-0.1,0.2-0.1,0.3-0.2l0,0c0,0,0,0.1-0.1,0.1
					c-0.1,0.1-0.2,0.2-0.3,0.2c-0.1,0.1-0.1,0.1-0.1,0.2s0,0.2,0.1,0.3c0,0.1,0.1,0.1,0.1,0.2c0,0,0.1,0,0.2,0s0.1,0,0.2,0
					c0.1,0,0.2,0.1,0.2,0.1l0,0c-0.1,0-0.2,0.1-0.4,0.1h-0.1C12.1,21.1,12,21.1,11.9,21.1z"/>
				<path class="st0" d="M12.9,19.6c0,0.1-0.1,0.2-0.1,0.3C12.7,20,12.7,20,12.6,20l0,0l0,0c0,0,0,0,0.1-0.1l0,0l0,0
					c-0.1,0-0.1,0-0.2,0v-0.1c0-0.1,0.1-0.1,0.2-0.1C12.7,19.6,12.8,19.6,12.9,19.6C12.8,19.6,12.9,19.6,12.9,19.6z"/>
				<path class="st0" d="M11.8,19.5c-0.1,0-0.1,0-0.2,0l0,0C11.7,19.5,11.7,19.5,11.8,19.5l-0.1,0.2c-0.1,0-0.1,0-0.2,0
					c-0.1,0-0.1-0.1-0.2-0.1c0.1,0,0.1-0.1,0.2-0.1C11.6,19.4,11.7,19.4,11.8,19.5C11.8,19.4,11.8,19.5,11.8,19.5z"/>
				<path class="st0" d="M12.2,18.9L12.2,18.9L12.2,18.9C12.1,18.8,12.1,18.9,12.2,18.9C12.1,18.9,12.1,18.9,12.2,18.9
					C12.1,18.9,12.1,18.9,12.2,18.9c-0.1,0-0.1-0.1-0.1-0.2s0.1-0.1,0.1-0.2C12.3,18.6,12.3,18.7,12.2,18.9
					C12.3,18.8,12.3,18.9,12.2,18.9z"/>
				<path class="st0" d="M12.2,19.3C12.2,19.3,12.2,19.4,12.2,19.3C12.2,19.4,12.2,19.4,12.2,19.3C12.1,19.3,12.1,19.2,12.2,19.3
					c-0.1-0.1,0-0.2,0.1-0.2c0,0.1,0.1,0.1,0.1,0.2S12.4,19.4,12.2,19.3C12.3,19.3,12.3,19.3,12.2,19.3L12.2,19.3z"/>
				<path class="st0" d="M12.4,19.5C12.4,19.5,12.5,19.4,12.4,19.5C12.5,19.4,12.5,19.4,12.4,19.5C12.4,19.4,12.4,19.4,12.4,19.5
					C12.4,19.4,12.4,19.4,12.4,19.5c0-0.2,0.1-0.2,0.1-0.2c0.1,0,0.1,0,0.2,0c0,0.1-0.1,0.1-0.1,0.2C12.5,19.5,12.5,19.5,12.4,19.5z
					"/>
				<path class="st0" d="M12,19.4L12,19.4L12,19.4C11.9,19.3,11.9,19.4,12,19.4C11.9,19.5,11.9,19.5,12,19.4c-0.2,0-0.2-0.1-0.2-0.1
					c0-0.1,0-0.1,0-0.2c0.1,0,0.2,0,0.2,0.1C12,19.2,12,19.3,12,19.4z"/>
				<path class="st0" d="M11.5,19.8c0.1,0,0.1-0.1,0.2-0.1s0.1,0,0.1,0.1h-0.1l0,0h0.1c0,0-0.1,0-0.1,0.1L11.5,19.8
					C11.6,19.9,11.5,19.9,11.5,19.8z"/>
				<path class="st0" d="M11.7,18.8C11.7,18.8,11.8,18.8,11.7,18.8c0.1,0.1,0.2,0.2,0.1,0.2C11.8,19,11.7,19,11.7,18.8L11.7,18.8V19
					c0,0,0,0-0.1,0l-0.1-0.1C11.7,18.9,11.7,18.8,11.7,18.8L11.7,18.8z"/>
				<path class="st0" d="M11,19c0.1,0,0.1,0,0.2,0c0,0,0.1,0,0.1,0.1h-0.1l0,0c0,0,0.1,0,0.1,0.1c0,0-0.1,0-0.2,0
					C11,19.1,11,19.1,11,19z"/>
				<path class="st0" d="M12.2,19.7L12.2,19.7C12.2,19.6,12.2,19.6,12.2,19.7C12.2,19.6,12.2,19.6,12.2,19.7c0-0.1,0-0.2,0.1-0.2
					c0,0,0,0,0.1,0h0.1C12.4,19.6,12.3,19.7,12.2,19.7L12.2,19.7L12.2,19.7z"/>
				<path class="st0" d="M11.6,19.3L11.6,19.3c-0.2,0-0.2-0.1-0.2-0.1C11.5,19.2,11.5,19.1,11.6,19.3C11.5,19.1,11.6,19.2,11.6,19.3
					C11.5,19.2,11.5,19.2,11.6,19.3C11.5,19.2,11.5,19.2,11.6,19.3C11.5,19.2,11.5,19.2,11.6,19.3z"/>
				<path class="st0" d="M12.4,19C12.4,18.9,12.4,18.9,12.4,19C12.4,18.9,12.4,18.9,12.4,19C12.4,18.9,12.4,18.9,12.4,19
					c-0.1-0.1,0-0.1,0-0.2c0,0,0.1,0,0.2-0.1C12.5,18.8,12.5,18.9,12.4,19L12.4,19L12.4,19z"/>
				<path class="st0" d="M11.5,19C11.4,19,11.4,19,11.5,19l-0.1-0.2C11.5,18.8,11.6,18.9,11.5,19C11.6,18.9,11.6,19,11.5,19
					C11.6,19,11.6,19,11.5,19C11.6,19,11.5,19,11.5,19C11.5,18.9,11.5,18.9,11.5,19L11.5,19z"/>
				<path class="st0" d="M12.5,19.2C12.5,19.2,12.5,19.1,12.5,19.2C12.5,19.1,12.5,19.1,12.5,19.2C12.5,19.1,12.4,19.1,12.5,19.2
					c-0.1-0.1,0-0.1,0-0.2c0,0,0.1-0.1,0.2-0.1c0,0.1,0,0.1,0,0.2C12.6,19.2,12.5,19.2,12.5,19.2z"/>
				<path class="st0" d="M11.3,19.5L11.3,19.5c-0.2,0.1-0.2,0.1-0.2,0C11.2,19.5,11.2,19.4,11.3,19.5C11.2,19.3,11.2,19.3,11.3,19.5
					C11.3,19.4,11.2,19.4,11.3,19.5C11.2,19.4,11.2,19.4,11.3,19.5C11.2,19.4,11.3,19.4,11.3,19.5z"/>
				<path class="st0" d="M13,19c0,0.1,0,0.1,0,0.2s-0.1,0.1-0.1,0.1v-0.1l0,0c0,0-0.1,0-0.1,0.1c0-0.1,0-0.1,0-0.1
					C12.8,19,12.9,19,13,19z"/>
				<path class="st0" d="M12.8,19.4C12.8,19.4,12.7,19.4,12.8,19.4C12.7,19.4,12.7,19.3,12.8,19.4c0-0.1,0.1-0.1,0.2-0.1
					C13,19.4,12.9,19.5,12.8,19.4C12.8,19.5,12.8,19.5,12.8,19.4L12.8,19.4L12.8,19.4z"/>
				<path class="st0" d="M11.3,19.8C11.4,19.8,11.4,19.8,11.3,19.8C11.4,19.8,11.3,19.9,11.3,19.8c-0.1,0.1-0.1,0-0.2,0
					C11.2,19.7,11.2,19.7,11.3,19.8C11.3,19.7,11.4,19.7,11.3,19.8C11.4,19.7,11.4,19.7,11.3,19.8L11.3,19.8z"/>
				<path class="st0" d="M12,18.9L12,18.9c0.1,0.1,0.1,0.2,0.1,0.3c0,0,0-0.1-0.1-0.1l0,0v0.1c-0.1,0-0.1-0.1-0.1-0.1
					C11.9,19,12,19,12,18.9z"/>
				<path class="st0" d="M13,19.5L13,19.5C13.1,19.5,13.1,19.5,13,19.5L13,19.5c0-0.1,0.1-0.1,0.2-0.1C13.1,19.5,13.1,19.6,13,19.5z
					"/>
				<path class="st0" d="M12.9,19.7L12.9,19.7C13,19.7,13,19.7,12.9,19.7L12.9,19.7c0-0.1,0.1-0.1,0.2,0
					C13,19.8,12.9,19.8,12.9,19.7z"/>
			</g>
			<g>
				<g>
					<path class="st5" d="M11.1,18.4c-0.1,0.1-0.2,0.1-0.2,0.2c-0.1,0.1-0.1,0.2-0.2,0.3c-0.1,0.1-0.1,0.2-0.1,0.3
						c0,0.1-0.1,0.2-0.1,0.3c0,0.2,0,0.4,0,0.6c0,0.1,0.1,0.2,0.1,0.3c0,0.1,0.1,0.2,0.1,0.3c0,0.1,0.1,0.1,0.1,0.2
						c0.1,0.1,0.1,0.1,0.2,0.2c0.1,0.1,0.2,0.1,0.3,0.2s0.2,0.1,0.3,0.1c0.1,0,0.1,0,0.2,0.1c0.1,0,0.1,0,0.2,0c0.1,0,0.3,0,0.4,0
						c0.1,0,0.3-0.1,0.4-0.1c0.1-0.1,0.3-0.1,0.4-0.2c0.1-0.1,0.2-0.2,0.3-0.3c0.1-0.1,0.2-0.3,0.2-0.4c0-0.2,0.1-0.3,0.1-0.4l0,0
						c0-0.1,0-0.1,0-0.1l0,0c0,0,0,0,0,0.1l0,0l0,0c0,0.1,0,0.2,0,0.3c0,0.1-0.1,0.3-0.2,0.4c-0.1,0.1-0.2,0.2-0.3,0.3
						c-0.1,0.1-0.2,0.2-0.4,0.3c-0.1,0.1-0.3,0.1-0.4,0.1c-0.1,0-0.3,0-0.5,0s-0.3-0.1-0.5-0.1c-0.1-0.1-0.3-0.1-0.4-0.2
						c-0.1-0.1-0.2-0.2-0.3-0.4c-0.1-0.2-0.2-0.4-0.2-0.6c0-0.2,0-0.4,0-0.6s0.1-0.4,0.2-0.6C10.8,18.7,10.9,18.5,11.1,18.4
						c0.2-0.1,0.2-0.1,0.3-0.2c0.1,0,0.2-0.1,0.3-0.1c0.2-0.1,0.4-0.1,0.7,0c0.1,0,0.2,0,0.3,0.1c0.1,0,0.2,0.1,0.3,0.1
						c0.1,0.1,0.2,0.1,0.3,0.2c0.1,0.1,0.2,0.2,0.2,0.2l0.1,0.1l0,0c0,0,0,0.1,0.1,0.1c0,0,0,0.1,0.1,0.1c0,0.1,0.1,0.2,0.1,0.3
						c0,0,0,0.1,0,0.2s0,0.1,0,0.2v-0.1v-0.1v-0.1v-0.1l0,0l0,0c0-0.1-0.1-0.2-0.1-0.2s0,0.1,0.1,0.1c0,0,0,0.1,0.1,0.1l0,0
						c0,0,0,0,0,0.1v0.1l0,0l0,0c0,0.1,0,0.1,0,0.2v0.1c0,0,0,0,0-0.1v-0.1c0-0.1,0-0.1,0-0.2l0,0l0,0l0,0l0,0l0,0
						c0-0.1,0-0.1-0.1-0.2c0-0.1-0.1-0.1-0.1-0.2l0,0c0,0,0-0.1,0,0l-0.1-0.1c0,0,0,0-0.1-0.1c0,0,0-0.1-0.1-0.1l-0.1-0.1
						c-0.1-0.1-0.2-0.2-0.4-0.3c-0.1-0.1-0.3-0.1-0.4-0.1s-0.2,0-0.2,0c-0.1,0-0.2,0-0.2,0l0,0h-0.1l0,0l0,0l0,0l0,0
						c-0.1,0-0.2,0-0.2,0.1c-0.1,0-0.2,0.1-0.2,0.1c-0.1,0-0.1,0.1-0.2,0.1C11.1,18.4,11,18.4,11.1,18.4C11,18.5,11,18.5,11.1,18.4
						C11,18.4,11,18.4,11.1,18.4z M13.6,19L13.6,19L13.6,19L13.6,19z"/>
					<path class="st5" d="M10.6,18.9L10.6,18.9C10.7,18.8,10.7,18.8,10.6,18.9C10.7,18.8,10.7,18.8,10.6,18.9L10.6,18.9L10.6,18.9z"
						/>
				</g>
				<g>
					<path class="st5" d="M12.3,21.5c0.1,0,0.2,0,0.3-0.1c0.1,0,0.2-0.1,0.3-0.1c0.1-0.1,0.2-0.1,0.3-0.2s0.2-0.1,0.2-0.2
						c0.1-0.2,0.2-0.4,0.3-0.6c0-0.1,0.1-0.2,0.1-0.3c0-0.1,0-0.2,0-0.3c0-0.1,0-0.2,0-0.2c0-0.1,0-0.2-0.1-0.2
						c0-0.1-0.1-0.2-0.1-0.3c-0.1-0.1-0.1-0.2-0.2-0.3c0-0.1-0.1-0.1-0.1-0.2c0,0-0.1-0.1-0.2-0.1c-0.1-0.1-0.2-0.2-0.4-0.2
						c-0.1-0.1-0.3-0.1-0.4-0.1c-0.1,0-0.3,0-0.4,0c-0.1,0-0.3,0.1-0.4,0.1c-0.2,0.1-0.3,0.2-0.4,0.3c-0.1,0.1-0.2,0.2-0.3,0.3l0,0
						c0,0,0,0.1-0.1,0.1l0,0l0,0l0,0l0,0c0.1-0.1,0.1-0.2,0.2-0.2c0.1-0.1,0.2-0.2,0.3-0.3c0.1-0.1,0.3-0.1,0.4-0.2
						c0.1,0,0.3,0,0.4,0c0.1,0,0.3,0,0.4,0.1c0.1,0,0.3,0.1,0.4,0.2c0.1,0.1,0.2,0.2,0.3,0.3c0.1,0.1,0.2,0.3,0.2,0.4
						c0.1,0.2,0.1,0.3,0.1,0.5s0,0.4-0.1,0.6c-0.1,0.2-0.2,0.4-0.3,0.5c-0.1,0.2-0.3,0.3-0.5,0.4C12.7,21.4,12.5,21.5,12.3,21.5
						s-0.3,0-0.4,0c-0.1,0-0.2,0-0.3-0.1c-0.2-0.1-0.4-0.2-0.6-0.3c-0.1-0.1-0.2-0.1-0.2-0.2c-0.1-0.1-0.1-0.2-0.2-0.3
						c-0.1-0.1-0.1-0.2-0.1-0.3c0-0.1-0.1-0.2-0.1-0.3c0-0.1,0-0.1,0-0.1l0,0v-0.1c0-0.1,0-0.1,0-0.2s0-0.2,0.1-0.3
						c0,0,0-0.1,0.1-0.2c0-0.1,0-0.1,0.1-0.2c0,0,0,0.1-0.1,0.1c0,0,0,0.1-0.1,0.1v0.1v0.1l0,0l0,0c0,0.1,0,0.2,0,0.2
						c0-0.1,0-0.1,0-0.1v-0.1l0,0c0,0,0,0,0-0.1v-0.1l0,0l0,0c0-0.1,0.1-0.1,0.1-0.2v-0.1l0,0c0,0,0,0,0,0.1s-0.1,0.1-0.1,0.2l0,0
						l0,0l0,0l0,0l0,0c0,0.1,0,0.1,0,0.2s0,0.1,0,0.2c0,0,0,0,0,0.1c0,0,0,0.1,0,0c0,0,0,0.1,0,0.2v0.1V20c0,0,0,0.1,0,0.2
						s0.1,0.3,0.2,0.4c0.1,0.1,0.2,0.2,0.3,0.3c0.1,0.1,0.1,0.1,0.2,0.2c0.1,0,0.1,0.1,0.2,0.1l0,0c0,0,0,0,0.1,0l0,0l0,0l0,0l0,0
						c0.1,0,0.1,0.1,0.2,0.1s0.2,0,0.2,0c0.1,0,0.2,0,0.2,0C12.2,21.6,12.3,21.5,12.3,21.5C12.4,21.5,12.4,21.5,12.3,21.5L12.3,21.5
						z M10.4,19.8L10.4,19.8C10.4,19.7,10.4,19.8,10.4,19.8L10.4,19.8z"/>
					<path class="st5" d="M12.9,21.3C12.9,21.3,12.9,21.4,12.9,21.3C12.9,21.4,12.8,21.4,12.9,21.3C12.8,21.4,12.9,21.4,12.9,21.3
						C12.9,21.4,12.9,21.4,12.9,21.3C12.9,21.4,12.9,21.3,12.9,21.3z"/>
				</g>
			</g>
		</g>
		<g>
			<g>
				<path class="st0" d="M26.1,18.9c0.1,0.1,0.1,0.2,0.2,0.3c0.2,0.2,0.3,0.4,0.4,0.6c0,0.1,0.1,0.2,0.1,0.3c0,0.1,0,0.3-0.1,0.4
					c-0.1,0.2-0.3,0.4-0.6,0.4c-0.3,0-0.6-0.1-0.7-0.4c-0.1-0.1-0.1-0.2-0.1-0.3c0-0.1,0-0.2,0.1-0.3c0.1-0.2,0.2-0.4,0.3-0.5
					C25.9,19.2,26,19.1,26.1,18.9L26.1,18.9z M26.5,19.9L26.5,19.9L26.5,19.9c0,0.2-0.1,0.4-0.2,0.5l-0.1,0.1l0,0l0,0
					c0.1,0,0.2,0,0.3-0.1c0.1-0.1,0.1-0.1,0.1-0.2v-0.1C26.7,20.1,26.6,20,26.5,19.9C26.6,20,26.6,19.9,26.5,19.9z"/>
				<path class="st0" d="M25.2,20.2c-0.1,0-0.1,0-0.2-0.1c-0.2-0.1-0.3-0.3-0.2-0.5c0-0.1,0-0.1,0.1-0.2c0.1-0.2,0.2-0.4,0.3-0.5
					c0-0.1,0.1-0.1,0.1-0.2l0,0c0.1,0.1,0.2,0.3,0.3,0.4l0,0c-0.1,0.2-0.2,0.4-0.3,0.6S25.2,20.1,25.2,20.2L25.2,20.2z"/>
			</g>
			<g>
				<g>
					<path class="st5" d="M24.8,18.4c-0.1,0.1-0.2,0.1-0.2,0.2c-0.1,0.1-0.1,0.2-0.2,0.3c-0.1,0.1-0.1,0.2-0.1,0.3
						c0,0.1-0.1,0.2-0.1,0.3c0,0.2,0,0.4,0,0.6c0,0.1,0.1,0.2,0.1,0.3c0,0.1,0.1,0.2,0.1,0.3c0,0.1,0.1,0.1,0.1,0.2
						c0.1,0.1,0.1,0.1,0.2,0.2s0.2,0.1,0.3,0.2c0.1,0.1,0.2,0.1,0.3,0.1c0.1,0,0.1,0,0.2,0.1c0.1,0,0.1,0,0.2,0c0.1,0,0.3,0,0.4,0
						s0.3-0.1,0.4-0.1c0.1-0.1,0.3-0.1,0.4-0.2s0.2-0.2,0.3-0.3c0.1-0.1,0.2-0.3,0.2-0.4c0-0.2,0.1-0.3,0.1-0.4l0,0
						c0-0.1,0-0.1,0-0.1l0,0c0,0,0,0,0,0.1l0,0l0,0c0,0.1,0,0.2,0,0.3c0,0.1-0.1,0.3-0.2,0.4c-0.1,0.1-0.2,0.2-0.3,0.3
						c-0.1,0.1-0.2,0.2-0.4,0.3c-0.1,0.1-0.3,0.1-0.4,0.1s-0.3,0-0.5,0c-0.2,0-0.3-0.1-0.5-0.1c-0.1-0.1-0.3-0.1-0.4-0.2
						s-0.2-0.2-0.3-0.4c-0.1-0.2-0.2-0.4-0.2-0.6c0-0.2,0-0.4,0-0.6s0.1-0.4,0.2-0.6C24.5,18.7,24.7,18.5,24.8,18.4
						c0.2-0.1,0.2-0.1,0.3-0.2c0.1,0,0.2-0.1,0.3-0.1c0.2-0.1,0.4-0.1,0.7,0c0.1,0,0.2,0,0.3,0.1c0.1,0,0.2,0.1,0.3,0.1
						c0.1,0.1,0.2,0.1,0.3,0.2c0.1,0.1,0.2,0.2,0.2,0.2l0.1,0.1l0,0c0,0,0,0.1,0.1,0.1c0,0,0,0.1,0.1,0.1c0,0.1,0.1,0.2,0.1,0.3
						c0,0,0,0.1,0,0.2s0,0.1,0,0.2v-0.1v-0.1v-0.1v-0.1l0,0l0,0c0-0.1-0.1-0.2-0.1-0.2s0,0.1,0.1,0.1c0,0,0,0.1,0.1,0.1l0,0
						c0,0,0,0,0,0.1v0.1l0,0l0,0c0,0.1,0,0.1,0,0.2v0.1c0,0,0,0,0-0.1v-0.1c0-0.1,0-0.1,0-0.2l0,0l0,0l0,0l0,0l0,0
						c0-0.1,0-0.1-0.1-0.2c0-0.1-0.1-0.1-0.1-0.2l0,0c0,0,0-0.1,0,0l-0.1-0.1c0,0,0,0-0.1-0.1c0,0,0-0.1-0.1-0.1l-0.1-0.1
						c-0.1-0.1-0.2-0.2-0.4-0.3c-0.1-0.1-0.3-0.1-0.4-0.1s-0.2,0-0.2,0c-0.1,0-0.2,0-0.2,0l0,0h-0.1l0,0l0,0l0,0l0,0
						c-0.1,0-0.2,0-0.2,0.1c-0.1,0-0.2,0.1-0.2,0.1c-0.1,0-0.1,0.1-0.2,0.1C24.8,18.4,24.8,18.4,24.8,18.4
						C24.7,18.5,24.7,18.5,24.8,18.4L24.8,18.4z M27.3,19L27.3,19L27.3,19L27.3,19z"/>
					<path class="st5" d="M24.3,18.9C24.3,18.9,24.4,18.9,24.3,18.9C24.4,18.8,24.4,18.8,24.3,18.9C24.4,18.8,24.4,18.8,24.3,18.9
						C24.4,18.9,24.4,18.9,24.3,18.9L24.3,18.9z"/>
				</g>
				<g>
					<path class="st5" d="M26,21.5c0.1,0,0.2,0,0.3-0.1c0.1,0,0.2-0.1,0.3-0.1c0.1-0.1,0.2-0.1,0.3-0.2c0.1-0.1,0.2-0.1,0.2-0.2
						c0.1-0.2,0.2-0.4,0.3-0.6c0-0.1,0.1-0.2,0.1-0.3c0-0.1,0-0.2,0-0.3c0-0.1,0-0.2,0-0.2c0-0.1,0-0.2-0.1-0.2
						c0-0.1-0.1-0.2-0.1-0.3c-0.1-0.1-0.1-0.2-0.2-0.3c0-0.1-0.1-0.1-0.1-0.2c0,0-0.1-0.1-0.2-0.1c-0.1-0.1-0.2-0.2-0.4-0.2
						c-0.1-0.1-0.3-0.1-0.4-0.1s-0.3,0-0.4,0s-0.3,0.1-0.4,0.1c-0.2,0.1-0.3,0.2-0.4,0.3c-0.1,0.1-0.2,0.2-0.3,0.3l0,0
						c0,0,0,0.1-0.1,0.1l0,0l0,0l0,0l0,0c0.1-0.1,0.1-0.2,0.2-0.2c0.1-0.1,0.2-0.2,0.3-0.3c0.1-0.1,0.3-0.1,0.4-0.2
						c0.1,0,0.3,0,0.4,0c0.1,0,0.3,0,0.4,0.1c0.1,0,0.3,0.1,0.4,0.2c0.1,0.1,0.2,0.2,0.3,0.3c0.1,0.1,0.2,0.3,0.2,0.4
						c0.1,0.2,0.1,0.3,0.1,0.5s0,0.4-0.1,0.6s-0.2,0.4-0.3,0.5c-0.1,0.2-0.3,0.3-0.5,0.4C26.4,21.4,26.2,21.5,26,21.5
						c-0.2,0-0.3,0-0.4,0s-0.2,0-0.3-0.1c-0.2-0.1-0.4-0.2-0.6-0.3c-0.1-0.1-0.2-0.1-0.2-0.2c-0.1-0.1-0.1-0.2-0.2-0.3
						c-0.1-0.1-0.1-0.2-0.1-0.3c0-0.1-0.1-0.2-0.1-0.3c0-0.1,0-0.1,0-0.1l0,0v-0.1c0-0.1,0-0.1,0-0.2s0-0.2,0.1-0.3
						c0,0,0-0.1,0.1-0.2c0-0.1,0-0.1,0.1-0.2c0,0,0,0.1-0.1,0.1c0,0,0,0.1-0.1,0.1v0.1v0.1l0,0l0,0c0,0.1,0,0.2,0,0.2
						c0-0.1,0-0.1,0-0.1v-0.1l0,0c0,0,0,0,0-0.1v-0.1l0,0l0,0c0-0.1,0.1-0.1,0.1-0.2v-0.1l0,0c0,0,0,0,0,0.1s-0.1,0.1-0.1,0.2l0,0
						l0,0l0,0l0,0l0,0c0,0.1,0,0.1,0,0.2s0,0.1,0,0.2c0,0,0,0,0,0.1c0,0,0,0.1,0,0c0,0,0,0.1,0,0.2v0.1V20c0,0,0,0.1,0,0.2
						s0.1,0.3,0.2,0.4s0.2,0.2,0.3,0.3c0.1,0.1,0.1,0.1,0.2,0.2c0.1,0,0.1,0.1,0.2,0.1l0,0c0,0,0,0,0.1,0l0,0l0,0l0,0l0,0
						c0.1,0,0.1,0.1,0.2,0.1s0.2,0,0.2,0c0.1,0,0.2,0,0.2,0C26,21.6,26,21.5,26,21.5C26.1,21.5,26.1,21.5,26,21.5L26,21.5z
						 M24.1,19.8L24.1,19.8C24.1,19.7,24.1,19.8,24.1,19.8L24.1,19.8z"/>
					<path class="st5" d="M26.7,21.3C26.6,21.3,26.6,21.4,26.7,21.3C26.6,21.4,26.6,21.4,26.7,21.3C26.6,21.4,26.6,21.4,26.7,21.3
						C26.6,21.4,26.6,21.4,26.7,21.3C26.6,21.4,26.6,21.3,26.7,21.3z"/>
				</g>
			</g>
		</g>
	</g>
	<g>
		<g>
			<g>
				<path class="st0" d="M13.9,16.3c-0.1-0.3,0.1-0.6,0.3-0.7c0.3-0.1,0.6,0.1,0.6,0.3C14.6,16.1,14.3,16.2,13.9,16.3z M14.5,15.7
					L14.5,15.7C14.5,15.8,14.5,15.8,14.5,15.7c0.1,0.1,0.1,0.1,0.2,0.2l0,0c0,0,0,0,0-0.1C14.7,15.8,14.7,15.8,14.5,15.7
					C14.6,15.8,14.6,15.7,14.5,15.7z M14.4,15.7L14.4,15.7C14.3,15.7,14.3,15.8,14.4,15.7C14.3,15.8,14.3,15.8,14.4,15.7
					C14.4,15.8,14.4,15.8,14.4,15.7C14.4,15.8,14.5,15.8,14.4,15.7C14.5,15.7,14.4,15.7,14.4,15.7z"/>
				<path class="st0" d="M13.9,15.9C13.9,16,13.9,16,13.9,15.9c-0.3,0.2-0.5,0.3-0.7,0.4c-0.1,0.1-0.1,0.1-0.2,0.2c0,0,0,0,0,0.1
					s0,0.1,0.1,0.2c0,0,0.1,0,0.2,0c0.2,0,0.3,0,0.5,0c0.3,0,0.6-0.1,0.9-0.2l0,0c0,0,0,0,0,0.1c-0.1,0-0.2,0.1-0.3,0.1
					c-0.2,0.1-0.5,0.1-0.7,0.2c-0.2,0-0.3,0-0.5,0c0,0-0.1,0-0.1-0.1c-0.1-0.1-0.1-0.1,0-0.2c0-0.1,0.1-0.1,0.1-0.2
					c0.2-0.1,0.3-0.2,0.5-0.3C13.7,16,13.8,16,13.9,15.9z"/>
				<path class="st0" d="M15,15.7L15,15.7C14.9,15.7,14.9,15.6,15,15.7c-0.1-0.1-0.1-0.1-0.1-0.2c0,0,0,0,0.1-0.1l0.1-0.1
					c0-0.1,0.1-0.1,0.2-0.1l0,0c0.1,0,0.1,0,0.2-0.1c0,0,0,0,0.1,0s0.1,0.1,0.1,0.1s0,0.1-0.1,0.1C15.5,15.6,15.3,15.7,15,15.7
					C15.1,15.7,15.1,15.7,15,15.7L15,15.7z M15.1,15.5L15.1,15.5L15.1,15.5C15,15.6,15,15.6,15.1,15.5c0.2,0.1,0.3,0,0.5-0.1
					l0.1-0.1l0,0l0,0c-0.1,0-0.1,0-0.2,0c0,0,0,0.1,0.1,0.1C15.4,15.5,15.3,15.6,15.1,15.5C15.1,15.6,15.1,15.6,15.1,15.5z"/>
				<path class="st0" d="M14.9,15.8c0.2,0,0.3-0.1,0.5-0.1h0.1c0,0,0.1,0.1,0,0.1l-0.1,0.1c-0.1,0.1-0.2,0.2-0.4,0.2
					c-0.4,0.2-0.8,0.3-1.2,0.4c-0.1,0-0.1,0-0.2,0c0,0,0,0,0-0.1l0,0c0.5-0.1,1-0.2,1.4-0.4c0.1-0.1,0.2-0.1,0.3-0.2
					c0,0,0,0,0.1-0.1l0,0h-0.1C15.2,15.8,15.1,15.9,14.9,15.8C14.9,15.9,14.9,15.9,14.9,15.8z"/>
				<path class="st0" d="M15.5,15.6C15.5,15.6,15.6,15.5,15.5,15.6C15.6,15.5,15.6,15.5,15.5,15.6c0.2-0.1,0.3,0,0.3,0l0,0
					c0.1,0,0.1,0.1,0.1,0.2c0,0.1-0.1,0.1-0.1,0.2c-0.1,0.1-0.2,0.2-0.4,0.3c-0.2,0.1-0.3,0.2-0.5,0.3c0,0,0,0,0-0.1
					c0.1,0,0.1,0,0.2-0.1c0.2-0.1,0.4-0.2,0.6-0.3c0.1,0,0.1-0.1,0.2-0.2c0,0,0,0,0.1-0.1c0-0.1,0-0.1-0.1-0.1s-0.1,0-0.2,0
					C15.6,15.6,15.6,15.6,15.5,15.6z"/>
				<path class="st0" d="M15.1,16L15.1,16c-0.1,0.1-0.2,0.1-0.4,0.1c-0.3,0.1-0.6,0.2-0.9,0.3l0,0l0,0l0,0h0.1
					C14.3,16.2,14.7,16.1,15.1,16C15.1,15.9,15.1,15.9,15.1,16C15.1,15.9,15.1,15.9,15.1,16C15.1,15.9,15.1,16,15.1,16z"/>
				<path class="st0" d="M13.4,16.4c0.1,0,0.2,0.1,0.2,0.2s-0.1,0.2-0.2,0.2s-0.2-0.1-0.2-0.2S13.3,16.4,13.4,16.4z"/>
				<path class="st0" d="M14.9,16.6c0,0.1-0.1,0.2-0.2,0.2c-0.1,0-0.2-0.1-0.2-0.2s0.1-0.2,0.2-0.2C14.9,16.4,14.9,16.5,14.9,16.6z"
					/>
				<path class="st0" d="M13.5,15.5c-0.1,0-0.1,0.1-0.2,0.2c0-0.1-0.1-0.2-0.2-0.2c0.1,0,0.1-0.1,0.2-0.2
					C13.3,15.3,13.3,15.4,13.5,15.5C13.4,15.4,13.5,15.5,13.5,15.5L13.5,15.5z"/>
				<path class="st0" d="M14.1,17.3c0-0.1-0.1-0.2-0.2-0.2c0.1,0,0.1-0.1,0.2-0.2c0,0.1,0.1,0.2,0.2,0.2
					C14.2,17.2,14.2,17.2,14.1,17.3z"/>
				<path class="st0" d="M14.9,15.2C14.9,15.2,14.8,15.2,14.9,15.2c-0.1,0.1-0.1,0.2-0.2,0.2c0,0,0-0.1-0.1-0.1c0,0-0.1,0-0.1-0.1
					c0,0,0.1,0,0.1-0.1c0,0,0-0.1,0.1-0.1C14.8,15.2,14.8,15.2,14.9,15.2z"/>
				<path class="st0" d="M15.6,17c-0.1,0-0.1,0.1-0.2,0.2c0-0.1-0.1-0.2-0.2-0.2l0,0c0,0,0.1,0,0.1-0.1c0,0,0-0.1,0.1-0.1
					C15.4,16.8,15.4,16.9,15.6,17C15.6,16.9,15.6,17,15.6,17L15.6,17z"/>
				<path class="st0" d="M13.9,16.2L13.9,16.2c-0.1,0.1-0.2,0.2-0.3,0.2l0,0C13.5,16.3,13.8,16.2,13.9,16.2z"/>
				<path class="st0" d="M14.9,15.6C14.9,15.7,14.9,15.7,14.9,15.6c-0.1,0.1-0.1,0.1-0.2,0C14.8,15.6,14.8,15.6,14.9,15.6z"/>
				<path class="st0" d="M15.3,15.7c0.1,0,0.2-0.1,0.2-0.1C15.5,15.7,15.4,15.7,15.3,15.7z"/>
			</g>
			<g>
				<g>
					<path class="st5" d="M13.4,14.8c-0.1,0.1-0.2,0.1-0.2,0.2c-0.1,0.1-0.1,0.2-0.2,0.3c-0.1,0.1-0.1,0.2-0.1,0.3
						c0,0.1-0.1,0.2-0.1,0.3c0,0.2,0,0.4,0,0.6c0,0.1,0.1,0.2,0.1,0.3S13,17,13,17.1c0,0.1,0.1,0.1,0.1,0.2c0.1,0.1,0.1,0.1,0.2,0.2
						s0.2,0.1,0.3,0.2s0.2,0.1,0.3,0.1s0.1,0,0.2,0.1c0.1,0,0.1,0,0.2,0c0.1,0,0.3,0,0.4,0c0.1,0,0.3-0.1,0.4-0.1
						c0.1-0.1,0.3-0.1,0.4-0.2c0.1-0.1,0.2-0.2,0.3-0.3c0.1-0.1,0.2-0.3,0.2-0.4c0-0.2,0.1-0.3,0.1-0.4l0,0c0-0.1,0-0.1,0-0.1l0,0
						c0,0,0,0,0,0.1l0,0l0,0c0,0.1,0,0.2,0,0.3s-0.1,0.3-0.2,0.4c-0.1,0.1-0.2,0.2-0.3,0.3c-0.1,0.1-0.2,0.2-0.4,0.3
						c-0.1,0.1-0.3,0.1-0.4,0.1c-0.1,0-0.3,0-0.5,0c-0.2,0-0.3-0.1-0.5-0.1c-0.1-0.1-0.3-0.1-0.4-0.2s-0.2-0.2-0.3-0.4
						c-0.1-0.2-0.2-0.4-0.2-0.6s0-0.4,0-0.6c0-0.2,0.1-0.4,0.2-0.6C13.1,15.1,13.3,14.9,13.4,14.8c0.2-0.1,0.2-0.1,0.3-0.2
						c0.1,0,0.2-0.1,0.3-0.1c0.2-0.1,0.4-0.1,0.7,0c0.1,0,0.2,0,0.3,0.1c0.1,0,0.2,0.1,0.3,0.1c0.1,0.1,0.2,0.1,0.3,0.2
						c0.1,0.1,0.2,0.2,0.2,0.2l0.1,0.1l0,0c0,0,0,0.1,0.1,0.1c0,0,0,0.1,0.1,0.1c0,0.1,0.1,0.2,0.1,0.3c0,0,0,0.1,0,0.2
						c0,0.1,0,0.1,0,0.2V16v-0.1v-0.1v-0.1l0,0l0,0c0-0.1-0.1-0.2-0.1-0.2s0,0.1,0.1,0.1c0,0,0,0.1,0.1,0.1l0,0c0,0,0,0,0,0.1v0.1
						l0,0l0,0c0,0.1,0,0.1,0,0.2v0.1c0,0,0,0,0-0.1V16c0-0.1,0-0.1,0-0.2l0,0l0,0l0,0l0,0l0,0c0-0.1,0-0.1-0.1-0.2
						c0-0.1-0.1-0.1-0.1-0.2l0,0c0,0,0-0.1,0,0L16,15.3c0,0,0,0-0.1-0.1c0,0,0-0.1-0.1-0.1L15.7,15c-0.1-0.1-0.2-0.2-0.4-0.3
						c-0.1-0.1-0.3-0.1-0.4-0.1c-0.1,0-0.2,0-0.2,0c-0.1,0-0.2,0-0.2,0l0,0h-0.1l0,0l0,0l0,0l0,0c-0.1,0-0.2,0-0.2,0.1
						c-0.1,0-0.2,0.1-0.2,0.1c-0.1,0-0.1,0.1-0.2,0.1C13.4,14.8,13.4,14.8,13.4,14.8C13.3,14.9,13.4,14.8,13.4,14.8L13.4,14.8z
						 M15.9,15.4C15.9,15.4,16,15.4,15.9,15.4C16,15.4,16,15.4,15.9,15.4L15.9,15.4z"/>
					<path class="st5" d="M13,15.3L13,15.3C13,15.2,13,15.2,13,15.3C13,15.2,13,15.2,13,15.3L13,15.3L13,15.3z"/>
				</g>
				<g>
					<path class="st5" d="M14.6,17.9c0.1,0,0.2,0,0.3-0.1c0.1,0,0.2-0.1,0.3-0.1c0.1-0.1,0.2-0.1,0.3-0.2s0.2-0.1,0.2-0.2
						c0.1-0.2,0.2-0.4,0.3-0.6c0-0.1,0.1-0.2,0.1-0.3c0-0.1,0-0.2,0-0.3c0-0.1,0-0.2,0-0.2c0-0.1,0-0.2-0.1-0.2
						c0-0.1-0.1-0.2-0.1-0.3c-0.1-0.1-0.1-0.2-0.2-0.3c0-0.1-0.1-0.1-0.1-0.2c0,0-0.1-0.1-0.2-0.1c-0.1-0.1-0.2-0.2-0.4-0.2
						c-0.1-0.1-0.3-0.1-0.4-0.1c-0.1,0-0.3,0-0.4,0s-0.3,0.1-0.4,0.1c-0.2,0.1-0.3,0.2-0.4,0.3c-0.1,0.1-0.2,0.2-0.3,0.3l0,0
						c0,0,0,0.1-0.1,0.1l0,0l0,0l0,0l0,0c0.1-0.1,0.1-0.2,0.2-0.2c0.1-0.1,0.2-0.2,0.3-0.3c0.1-0.1,0.3-0.1,0.4-0.2
						c0.1,0,0.3,0,0.4,0c0.1,0,0.3,0,0.4,0.1c0.1,0,0.3,0.1,0.4,0.2c0.1,0.1,0.2,0.2,0.3,0.3s0.2,0.3,0.2,0.4
						c0.1,0.2,0.1,0.3,0.1,0.5c0,0.2,0,0.4-0.1,0.6c-0.1,0.2-0.2,0.4-0.3,0.5c-0.1,0.2-0.3,0.3-0.5,0.4C15,17.8,14.8,17.9,14.6,17.9
						s-0.3,0-0.4,0s-0.2,0-0.3-0.1c-0.2-0.1-0.4-0.2-0.6-0.3c-0.1-0.1-0.2-0.1-0.2-0.2c0-0.1-0.1-0.2-0.1-0.3
						c-0.1-0.1-0.1-0.2-0.1-0.3c0-0.1-0.1-0.2-0.1-0.3c0-0.1,0-0.1,0-0.1l0,0v-0.1c0-0.1,0-0.1,0-0.2s0-0.2,0.1-0.3
						c0,0,0-0.1,0.1-0.2c0-0.1,0-0.1,0.1-0.2c0,0,0,0.1-0.1,0.1c0,0,0,0.1-0.1,0.1v0.1v0.1l0,0l0,0c0,0.1,0,0.2,0,0.2
						c0-0.1,0-0.1,0-0.1v-0.1l0,0c0,0,0,0,0-0.1v-0.1l0,0l0,0c0-0.1,0.1-0.1,0.1-0.2v-0.1l0,0c0,0,0,0,0,0.1s-0.1,0.1-0.1,0.2l0,0
						l0,0l0,0l0,0l0,0c0,0.1,0,0.1,0,0.2c0,0.1,0,0.1,0,0.2c0,0,0,0,0,0.1c0,0,0,0.1,0,0c0,0,0,0.1,0,0.2v0.1v0.1c0,0,0,0.1,0,0.2
						s0.1,0.3,0.2,0.4c0.1,0.1,0.2,0.2,0.3,0.3c0.1,0.1,0.1,0.1,0.2,0.2c0.1,0,0.1,0.1,0.2,0.1l0,0c0,0,0,0,0.1,0l0,0l0,0l0,0l0,0
						c0.1,0,0.1,0.1,0.2,0.1s0.2,0,0.2,0c0.1,0,0.2,0,0.2,0C14.6,17.9,14.7,17.9,14.6,17.9C14.7,17.9,14.7,17.9,14.6,17.9
						C14.7,17.9,14.7,17.9,14.6,17.9z M12.7,16.2L12.7,16.2C12.7,16.1,12.7,16.1,12.7,16.2L12.7,16.2z"/>
					<path class="st5" d="M15.3,17.7C15.3,17.7,15.2,17.8,15.3,17.7C15.2,17.8,15.2,17.8,15.3,17.7C15.2,17.8,15.2,17.8,15.3,17.7
						C15.2,17.8,15.2,17.7,15.3,17.7L15.3,17.7z"/>
				</g>
			</g>
		</g>
		<g>
			<g>
				<path class="st0" d="M22.7,16.8c0-0.1-0.1-0.2-0.1-0.3c-0.1-0.3,0-0.6,0.3-0.8l0,0l0,0l0,0c0,0.1,0,0.1,0,0.2c0,0.1,0,0.2,0,0.3
					l0,0l0,0c0-0.1,0.1-0.1,0.2-0.2c0,0,0,0,0.1-0.1c0.1,0,0.1-0.1,0.2-0.1c0.1-0.1,0.1-0.2,0.1-0.3s0-0.2-0.1-0.3l0,0l0,0
					c0.2,0.1,0.4,0.3,0.4,0.6c0,0.1,0,0.3,0,0.4l0,0l0,0c0.2-0.1,0.3-0.2,0.3-0.4v-0.1l0,0l0,0c0.2,0.2,0.2,0.5,0,0.7
					C24,16.5,24,16.5,24,16.6l0,0c0.1,0,0.2,0,0.4,0c0.1-0.1,0.1-0.1,0.1-0.2l0,0l0,0c0,0.2-0.1,0.4-0.2,0.6
					c-0.1,0.1-0.2,0.2-0.4,0.3h-0.1c-0.3,0-0.6,0-0.9,0c-0.1,0-0.1,0-0.2,0c-0.2-0.1-0.4-0.2-0.5-0.4c-0.1-0.1-0.1-0.2-0.1-0.3l0,0
					l0,0c0.1,0.1,0.2,0.2,0.3,0.2C22.7,16.8,22.7,16.8,22.7,16.8z M23,16.7c0,0.1,0,0.2,0,0.2c0,0.1,0.1,0.3,0.2,0.3c0,0,0,0,0.1,0
					c0.2,0,0.4,0,0.6,0l0,0c0-0.1,0-0.2,0-0.3v-0.1v-0.1l0,0c0,0.1-0.1,0.2-0.2,0.3l0,0l0,0c0,0,0,0,0-0.1c0-0.1,0-0.2,0-0.2
					c-0.1-0.2-0.1-0.4,0-0.5v-0.1l0,0c-0.1,0-0.2,0.1-0.3,0.3c-0.1,0.1-0.1,0.2-0.1,0.4l0,0C23.1,16.9,23.1,16.8,23,16.7
					C23.1,16.8,23,16.8,23,16.7z"/>
				<path class="st0" d="M24.2,15.5c0,0.1-0.1,0.2-0.2,0.3l0,0l0,0c0-0.1,0-0.1,0-0.2c0-0.1,0-0.2,0-0.2c0-0.1,0-0.1,0-0.2
					c0,0,0-0.1,0.1-0.1l0,0l0,0C24.1,15.2,24.1,15.3,24.2,15.5C24.2,15.5,24.2,15.5,24.2,15.5L24.2,15.5z"/>
				<path class="st0" d="M23.3,15.3c0,0.1,0,0.1,0,0.2c0,0.1,0,0.1,0,0.2c0,0,0,0,0,0.1l0,0l0,0c-0.1-0.1-0.3-0.2-0.2-0.4
					c0.1-0.1,0.1-0.2,0.1-0.3l0,0l0,0C23.2,15.1,23.3,15.1,23.3,15.3C23.3,15.2,23.3,15.2,23.3,15.3L23.3,15.3z"/>
			</g>
			<g>
				<g>
					<path class="st5" d="M22.4,14.8c-0.1,0.1-0.2,0.1-0.2,0.2c-0.1,0.1-0.1,0.2-0.2,0.3s-0.1,0.2-0.1,0.3c0,0.1-0.1,0.2-0.1,0.3
						c0,0.2,0,0.4,0,0.6c0,0.1,0.1,0.2,0.1,0.3S22,17,22,17.1c0,0.1,0.1,0.1,0.1,0.2c0.1,0.1,0.1,0.1,0.2,0.2s0.2,0.1,0.3,0.2
						c0.1,0.1,0.2,0.1,0.3,0.1c0.1,0,0.1,0,0.2,0.1c0.1,0,0.1,0,0.2,0s0.3,0,0.4,0s0.3-0.1,0.4-0.1c0.1-0.1,0.3-0.1,0.4-0.2
						s0.2-0.2,0.3-0.3c0.1-0.1,0.2-0.3,0.2-0.4c0-0.2,0.1-0.3,0.1-0.4l0,0c0-0.1,0-0.1,0-0.1l0,0c0,0,0,0,0,0.1l0,0l0,0
						c0,0.1,0,0.2,0,0.3s-0.1,0.3-0.2,0.4s-0.2,0.2-0.3,0.3c-0.1,0.1-0.2,0.2-0.4,0.3c-0.1,0.1-0.3,0.1-0.4,0.1s-0.3,0-0.5,0
						s-0.3-0.1-0.5-0.1c-0.1-0.1-0.3-0.1-0.4-0.2s-0.2-0.2-0.3-0.4c-0.1-0.2-0.2-0.4-0.2-0.6s0-0.4,0-0.6c0-0.2,0.1-0.4,0.2-0.6
						C22.2,15.1,22.3,14.9,22.4,14.8c0.2-0.1,0.2-0.1,0.3-0.2c0.1,0,0.2-0.1,0.3-0.1c0.2-0.1,0.4-0.1,0.7,0c0.1,0,0.2,0,0.3,0.1
						c0.1,0,0.2,0.1,0.3,0.1c0.1,0.1,0.2,0.1,0.3,0.2c0.1,0.1,0.2,0.2,0.2,0.2l0.1,0.1l0,0c0,0,0,0.1,0.1,0.1c0,0,0,0.1,0.1,0.1
						c0,0.1,0.1,0.2,0.1,0.3c0,0,0,0.1,0,0.2c0,0.1,0,0.1,0,0.2V16v-0.1v-0.1v-0.1l0,0l0,0c0-0.1-0.1-0.2-0.1-0.2s0,0.1,0.1,0.1
						c0,0,0,0.1,0.1,0.1l0,0c0,0,0,0,0,0.1v0.1l0,0l0,0c0,0.1,0,0.1,0,0.2v0.1c0,0,0,0,0-0.1V16c0-0.1,0-0.1,0-0.2l0,0l0,0l0,0l0,0
						l0,0c0-0.1,0-0.1-0.1-0.2c0-0.1-0.1-0.1-0.1-0.2l0,0c0,0,0-0.1,0,0L25,15.3c0,0,0,0-0.1-0.1c0,0,0-0.1-0.1-0.1L24.7,15
						c-0.1-0.1-0.2-0.2-0.4-0.3c-0.1-0.1-0.3-0.1-0.4-0.1s-0.2,0-0.2,0c-0.1,0-0.2,0-0.2,0l0,0h-0.1l0,0l0,0l0,0l0,0
						c-0.1,0-0.2,0-0.2,0.1c-0.1,0-0.2,0.1-0.2,0.1c-0.1,0-0.1,0.1-0.2,0.1C22.5,14.8,22.4,14.8,22.4,14.8
						C22.4,14.9,22.4,14.8,22.4,14.8L22.4,14.8z M25,15.4L25,15.4L25,15.4L25,15.4z"/>
					<path class="st5" d="M22,15.3L22,15.3C22,15.2,22,15.2,22,15.3C22,15.2,22,15.2,22,15.3L22,15.3L22,15.3z"/>
				</g>
				<g>
					<path class="st5" d="M23.7,17.9c0.1,0,0.2,0,0.3-0.1c0.1,0,0.2-0.1,0.3-0.1c0.1-0.1,0.2-0.1,0.3-0.2c0.1-0.1,0.2-0.1,0.2-0.2
						c0.1-0.2,0.2-0.4,0.3-0.6c0-0.1,0.1-0.2,0.1-0.3c0-0.1,0-0.2,0-0.3c0-0.1,0-0.2,0-0.2c0-0.1,0-0.2-0.1-0.2
						c0-0.1-0.1-0.2-0.1-0.3c-0.1-0.1-0.1-0.2-0.2-0.3c0-0.1-0.1-0.1-0.1-0.2c0,0-0.1-0.1-0.2-0.1c-0.1-0.1-0.2-0.2-0.4-0.2
						c-0.1-0.1-0.3-0.1-0.4-0.1s-0.3,0-0.4,0s-0.3,0.1-0.4,0.1c-0.2,0.1-0.3,0.2-0.4,0.3c-0.1,0.1-0.2,0.2-0.3,0.3l0,0
						c0,0,0,0.1-0.1,0.1l0,0l0,0l0,0l0,0c0.1-0.1,0.1-0.2,0.2-0.2c0.1-0.1,0.2-0.2,0.3-0.3c0.1-0.1,0.3-0.1,0.4-0.2
						c0.1,0,0.3,0,0.4,0s0.3,0,0.4,0.1c0.1,0,0.3,0.1,0.4,0.2c0.1,0.1,0.2,0.2,0.3,0.3c0.1,0.1,0.2,0.3,0.2,0.4
						c0.1,0.2,0.1,0.3,0.1,0.5c0,0.2,0,0.4-0.1,0.6c-0.1,0.2-0.2,0.4-0.3,0.5c-0.1,0.2-0.3,0.3-0.5,0.4C24,17.8,23.8,17.9,23.7,17.9
						c-0.2,0-0.3,0-0.4,0s-0.2,0-0.3-0.1c-0.2-0.1-0.4-0.2-0.6-0.3c-0.1-0.1-0.2-0.1-0.2-0.2c-0.1-0.1-0.1-0.2-0.2-0.3
						c-0.1-0.1-0.1-0.2-0.1-0.3c0-0.1-0.1-0.2-0.1-0.3c0-0.1,0-0.1,0-0.1l0,0v-0.1c0-0.1,0-0.1,0-0.2s0-0.2,0.1-0.3
						c0,0,0-0.1,0.1-0.2c0-0.1,0-0.1,0.1-0.2c0,0,0,0.1-0.1,0.1c0,0,0,0.1-0.1,0.1v0.1v0.1l0,0l0,0c0,0.1,0,0.2,0,0.2
						c0-0.1,0-0.1,0-0.1v-0.1l0,0c0,0,0,0,0-0.1v-0.1l0,0l0,0c0-0.1,0.1-0.1,0.1-0.2v-0.1l0,0c0,0,0,0,0,0.1s-0.1,0.1-0.1,0.2l0,0
						l0,0l0,0l0,0l0,0c0,0.1,0,0.1,0,0.2c0,0.1,0,0.1,0,0.2c0,0,0,0,0,0.1c0,0,0,0.1,0,0c0,0,0,0.1,0,0.2v0.1v0.1c0,0,0,0.1,0,0.2
						s0.1,0.3,0.2,0.4s0.2,0.2,0.3,0.3c0.1,0.1,0.1,0.1,0.2,0.2c0.1,0,0.1,0.1,0.2,0.1l0,0c0,0,0,0,0.1,0l0,0l0,0l0,0l0,0
						c0.1,0,0.1,0.1,0.2,0.1s0.2,0,0.2,0c0.1,0,0.2,0,0.2,0C23.6,17.9,23.7,17.9,23.7,17.9L23.7,17.9L23.7,17.9z M21.7,16.2
						L21.7,16.2C21.8,16.1,21.8,16.1,21.7,16.2C21.8,16.2,21.8,16.2,21.7,16.2z"/>
					<path class="st5" d="M24.3,17.7C24.3,17.7,24.3,17.8,24.3,17.7C24.2,17.8,24.2,17.8,24.3,17.7C24.2,17.8,24.2,17.8,24.3,17.7
						C24.3,17.8,24.3,17.7,24.3,17.7L24.3,17.7z"/>
				</g>
			</g>
		</g>
	</g>
	<g>
		<g>
			<path class="st0" d="M18.3,12.7c0.2-0.1,0.5-0.1,0.6,0.2c0.1,0.1,0.1,0.2,0.1,0.3c0,0.1,0,0.2-0.1,0.2c-0.2,0.1-0.4,0-0.6-0.2
				c0-0.1-0.1-0.2-0.1-0.2l0,0c-0.1,0-0.2,0-0.3,0l0,0l0,0l0,0H18c0.2,0,0.3,0,0.5,0.1c0.1,0.1,0.2,0.1,0.2,0.2c0,0,0,0,0.1,0l0,0
				l0,0C18.7,12.9,18.6,12.8,18.3,12.7C18.4,12.7,18.3,12.7,18.3,12.7z"/>
			<path class="st0" d="M19.4,13.9c-0.1,0-0.3,0-0.4,0.1c-0.3,0.1-0.6,0-0.9-0.2c0,0,0,0,0-0.1c0,0,0,0,0.1,0
				c0.1,0.1,0.2,0.1,0.3,0.1c0.2,0.1,0.4,0.1,0.6,0c0.2-0.1,0.4-0.1,0.6-0.1c0.1,0,0.2,0,0.3,0.1c0.1,0.1,0.2,0.2,0.2,0.4v0.1
				c0,0.1-0.1,0.2-0.3,0.2c-0.1,0-0.2,0-0.2-0.1c0,0,0,0,0-0.1c0,0,0,0,0.1,0s0.1,0,0.2,0.1h0.1c0.1,0,0.1-0.1,0.1-0.2
				c0-0.2-0.1-0.3-0.2-0.4C19.7,13.9,19.6,13.9,19.4,13.9z"/>
			<path class="st0" d="M18.9,13.7c-0.3,0-0.5-0.1-0.7-0.4c0,0,0,0,0-0.1l0,0l0,0c0.1,0.1,0.3,0.3,0.4,0.3c0.2,0.1,0.4,0,0.5,0
				s0.1-0.1,0.2-0.1c0.1,0,0.1-0.1,0.1-0.1v-0.1c0-0.1-0.1-0.1-0.1-0.1c-0.1,0-0.1,0-0.2,0.1c0,0,0,0-0.1,0c0,0,0,0,0-0.1
				c0.1-0.1,0.3-0.2,0.4-0.1c0.1,0.1,0.1,0.1,0.1,0.2s-0.1,0.2-0.2,0.2C19.2,13.5,19,13.5,18.9,13.7C19,13.7,19,13.7,18.9,13.7z"/>
			<path class="st0" d="M18.7,14.6c-0.3,0-0.6-0.1-0.8-0.3l-0.1-0.1c0,0,0,0,0-0.1c0,0,0,0,0.1,0c0.1,0.1,0.2,0.2,0.3,0.3
				C18.4,14.5,18.6,14.5,18.7,14.6C18.8,14.5,18.8,14.5,18.7,14.6C18.8,14.6,18.8,14.6,18.7,14.6C18.8,14.6,18.8,14.6,18.7,14.6z"/>
			<path class="st0" d="M17.9,13.8C18,13.8,18,13.8,17.9,13.8c0.2,0.2,0.3,0.3,0.5,0.4c0,0,0.1,0,0.1,0.1c0,0,0,0,0,0.1
				c0,0,0,0-0.1,0C18.3,14.2,18.1,14.1,17.9,13.8C17.9,13.9,17.9,13.9,17.9,13.8L17.9,13.8z"/>
			<path class="st0" d="M18.9,14.4C18.9,14.4,18.8,14.4,18.9,14.4C18.8,14.4,18.8,14.4,18.9,14.4C18.8,14.3,18.8,14.3,18.9,14.4
				C18.9,14.3,18.9,14.3,18.9,14.4C18.9,14.3,18.9,14.3,18.9,14.4C18.9,14.4,18.9,14.4,18.9,14.4C18.9,14.4,18.9,14.4,18.9,14.4z"/>
		</g>
		<g>
			<g>
				<path class="st5" d="M18,12.2c-0.1,0.1-0.2,0.1-0.2,0.2c-0.1,0.1-0.1,0.2-0.2,0.3s-0.1,0.2-0.1,0.3s-0.1,0.2-0.1,0.3
					c0,0.2,0,0.4,0,0.6c0,0.1,0.1,0.2,0.1,0.3s0.1,0.2,0.1,0.3s0.1,0.1,0.1,0.2c0.1,0.1,0.1,0.1,0.2,0.2c0.1,0.1,0.2,0.1,0.3,0.2
					c0.1,0.1,0.2,0.1,0.3,0.1c0.1,0,0.1,0,0.2,0.1c0.1,0,0.1,0,0.2,0s0.3,0,0.4,0c0.1,0,0.3-0.1,0.4-0.1c0.1-0.1,0.3-0.1,0.4-0.2
					c0.1-0.1,0.2-0.2,0.3-0.3c0.1-0.1,0.2-0.3,0.2-0.4c0-0.2,0.1-0.3,0.1-0.4l0,0c0-0.1,0-0.1,0-0.1l0,0c0,0,0,0,0,0.1l0,0l0,0
					c0,0.1,0,0.2,0,0.3s-0.1,0.3-0.2,0.4c-0.1,0.1-0.2,0.2-0.3,0.3c-0.1,0.1-0.2,0.2-0.4,0.3c-0.1,0.1-0.3,0.1-0.4,0.1
					c-0.1,0-0.3,0-0.5,0s-0.3-0.1-0.5-0.1c-0.1-0.1-0.3-0.1-0.4-0.2c-0.1-0.1-0.2-0.2-0.3-0.4c-0.1-0.2-0.2-0.4-0.2-0.6
					c0-0.2,0-0.4,0-0.6c0-0.2,0.1-0.4,0.2-0.6C17.7,12.5,17.9,12.3,18,12.2c0.2-0.1,0.2-0.1,0.3-0.2c0.1,0,0.2-0.1,0.3-0.1
					c0.2-0.1,0.4-0.1,0.7,0c0.1,0,0.2,0,0.3,0.1c0.1,0,0.2,0.1,0.3,0.1c0.1,0.1,0.2,0.1,0.3,0.2c0.1,0.1,0.2,0.2,0.2,0.2l0.1,0.1
					l0,0c0,0,0,0.1,0.1,0.1c0,0,0,0.1,0.1,0.1c0,0.1,0.1,0.2,0.1,0.3c0,0,0,0.1,0,0.2c0,0.1,0,0.1,0,0.2v-0.1v-0.1v-0.1v-0.1l0,0
					l0,0c0-0.1-0.1-0.2-0.1-0.2s0,0.1,0.1,0.1c0,0,0,0.1,0.1,0.1l0,0c0,0,0,0,0,0.1v0.1l0,0l0,0c0,0.1,0,0.1,0,0.2v0.1
					c0,0,0,0,0-0.1v-0.1c0-0.1,0-0.1,0-0.2l0,0l0,0l0,0l0,0l0,0c0-0.1,0-0.1-0.1-0.2c0-0.1-0.1-0.1-0.1-0.2l0,0c0,0,0-0.1,0,0
					l-0.1-0.1c0,0,0,0-0.1-0.1c0,0,0-0.1-0.1-0.1l-0.1-0.1c-0.1-0.1-0.2-0.2-0.4-0.3C19.7,12,19.5,12,19.4,12s-0.2,0-0.2,0
					c-0.1,0-0.2,0-0.2,0l0,0h-0.1l0,0l0,0l0,0l0,0c-0.1,0-0.2,0-0.2,0.1c-0.1,0-0.2,0.1-0.2,0.1c-0.1,0-0.1,0.1-0.2,0.1
					C18,12.2,17.9,12.2,18,12.2C17.9,12.3,17.9,12.2,18,12.2C17.9,12.2,18,12.2,18,12.2z M20.4,12.8L20.4,12.8L20.4,12.8L20.4,12.8z
					"/>
				<path class="st5" d="M17.5,12.7L17.5,12.7C17.6,12.6,17.6,12.6,17.5,12.7C17.6,12.6,17.6,12.6,17.5,12.7L17.5,12.7L17.5,12.7z"
					/>
			</g>
			<g>
				<path class="st5" d="M19.1,15.3c0.1,0,0.2,0,0.3-0.1c0.1,0,0.2-0.1,0.3-0.1c0.1-0.1,0.2-0.1,0.3-0.2c0.1-0.1,0.2-0.1,0.2-0.2
					c0.1-0.2,0.2-0.4,0.3-0.6c0-0.1,0.1-0.2,0.1-0.3s0-0.2,0-0.3s0-0.2,0-0.2c0-0.1,0-0.2-0.1-0.2c0-0.1-0.1-0.2-0.1-0.3
					c-0.1-0.1-0.1-0.2-0.2-0.3c0-0.1-0.1-0.1-0.1-0.2c0,0-0.1-0.1-0.2-0.1c-0.1-0.1-0.2-0.2-0.4-0.2c-0.1,0-0.2,0-0.4,0
					c-0.1,0-0.3,0-0.4,0s-0.3,0.1-0.4,0.1c-0.2,0.1-0.3,0.2-0.4,0.3c-0.1,0.1-0.2,0.2-0.3,0.3l0,0c0,0,0,0.1-0.1,0.1l0,0l0,0l0,0
					l0,0c0.1-0.1,0.1-0.2,0.2-0.2c0.1-0.1,0.2-0.2,0.3-0.3c0.1-0.1,0.3-0.1,0.4-0.2c0.1,0,0.3,0,0.4,0s0.3,0,0.4,0.1
					c0.1,0,0.3,0.1,0.4,0.2c0.1,0.1,0.2,0.2,0.3,0.3c0.1,0.1,0.2,0.3,0.2,0.4c0.1,0.2,0.1,0.3,0.1,0.5s0,0.4-0.1,0.6
					s-0.2,0.4-0.3,0.5c-0.1,0.2-0.3,0.3-0.5,0.4C19.5,15.2,19.3,15.3,19.1,15.3c-0.2,0-0.3,0-0.4,0s-0.2,0-0.3-0.1
					c-0.2-0.1-0.4-0.2-0.6-0.3c-0.1-0.1-0.2-0.1-0.2-0.2c-0.1-0.1-0.1-0.2-0.2-0.3s-0.1-0.2-0.1-0.3c0-0.1-0.1-0.2-0.1-0.3
					s0-0.1,0-0.1l0,0v-0.1c0-0.1,0-0.1,0-0.2c0-0.1,0-0.2,0.1-0.3c0,0,0-0.1,0.1-0.2c0-0.1,0-0.1,0.1-0.2c0,0,0,0.1-0.1,0.1
					c0,0,0,0.1-0.1,0.1V13v0.1l0,0l0,0c0,0.1,0,0.2,0,0.2c0-0.1,0-0.1,0-0.1v-0.1l0,0c0,0,0,0,0-0.1v-0.1l0,0l0,0
					c0-0.1,0.1-0.1,0.1-0.2v-0.1l0,0c0,0,0,0,0,0.1s-0.1,0.1-0.1,0.2l0,0l0,0l0,0l0,0l0,0c0,0.1,0,0.1,0,0.2c0,0.1,0,0.1,0,0.2
					c0,0,0,0,0,0.1c0,0,0,0.1,0,0c0,0,0,0.1,0,0.2v0.1v0.1c0,0,0,0.1,0,0.2s0.1,0.3,0.2,0.4c0.1,0.1,0.2,0.2,0.3,0.3
					c0,0.3,0.1,0.3,0.1,0.4c0.1,0,0.1,0.1,0.2,0.1l0,0c0,0,0,0,0.1,0l0,0l0,0l0,0l0,0c0.1,0,0.1,0.1,0.2,0.1s0.2,0,0.2,0
					c0.1,0,0.2,0,0.2,0C19.1,15.4,19.1,15.3,19.1,15.3C19.2,15.3,19.2,15.3,19.1,15.3L19.1,15.3z M17.3,13.6L17.3,13.6
					C17.3,13.5,17.3,13.6,17.3,13.6L17.3,13.6z"/>
				<path class="st5" d="M19.7,15.1C19.7,15.1,19.7,15.2,19.7,15.1C19.7,15.2,19.7,15.2,19.7,15.1C19.7,15.2,19.7,15.2,19.7,15.1
					C19.7,15.2,19.7,15.2,19.7,15.1L19.7,15.1z"/>
			</g>
		</g>
	</g>
	<g>
		<path class="st0" d="M16,10.7c0-0.2-0.1-0.3-0.4-0.4l-0.2-0.1C15,10,14.8,9.8,14.8,9.5c0-0.4,0.4-0.7,0.9-0.7
			c0.3,0,0.5,0.1,0.7,0.2v0.5H16l-0.1-0.6l0.3,0.2v0.2C16,9.1,15.8,9,15.7,9c-0.3,0-0.4,0.1-0.4,0.4c0,0.2,0.1,0.3,0.4,0.4l0.2,0.1
			c0.5,0.2,0.7,0.4,0.7,0.8c0,0.4-0.4,0.7-0.9,0.7c-0.3,0-0.6-0.1-0.8-0.2v-0.5H15l0.1,0.6l-0.3-0.1v-0.2c0.2,0.1,0.4,0.2,0.6,0.2
			C15.8,11.1,16,11,16,10.7z"/>
		<path class="st0" d="M16.5,11.1l0.4-0.1H17l0.4,0.1v0.2h-0.8L16.5,11.1L16.5,11.1z M17.6,8.9h0.3l0.9,2.5h-0.5l-0.7-2.1l0.1-0.2
			L17,11.2h-0.2L17.6,8.9z M17.2,10.3h1l0.1,0.2h-1.1V10.3z M17.8,11.1l0.4-0.1h0.2l0.5,0.1v0.2h-1.1V11.1z"/>
		<path class="st0" d="M21,11.1c-0.3,0.1-0.5,0.2-0.8,0.2c-0.8,0-1.3-0.5-1.3-1.3s0.5-1.3,1.3-1.3c0.3,0,0.5,0.1,0.7,0.2v0.6h-0.3
			L20.5,9l0.2,0.1v0.2c-0.2-0.2-0.4-0.2-0.6-0.2c-0.5,0-0.8,0.4-0.8,1.1c0,0.7,0.3,1.1,0.8,1.1c0.2,0,0.3,0,0.5-0.1l-0.2,0.2V11
			c0-0.3,0-0.6,0-0.9h0.5C20.9,10.4,20.9,10.7,21,11.1L21,11.1L21,11.1z M20.2,10.2V10h1.1v0.2h-0.4h-0.2H20.2z"/>
		<path class="st0" d="M21.4,9L21.4,9L22,8.9v0.2l0,0L21.4,9z M22,11v0.2h-0.6V11H22L22,11z M21.7,9.9c0-0.4,0-0.8,0-1.2h0.5
			c0,0.4,0,0.8,0,1.2V10c0,0.4,0,0.8,0,1.2h-0.5C21.7,10.8,21.7,10.4,21.7,9.9L21.7,9.9z M22.9,8.9l0.3,0.2H22V8.9h1.3v0.7H23
			L22.9,8.9z M22.8,10.1H22V9.9h0.8V10.1z M23.4,10.6v0.7H22v-0.2h1.3l-0.2,0.2l0.1-0.7H23.4z M22.7,9.9l0.1-0.4h0.1v0.8h-0.2V9.9
			L22.7,9.9z"/>
	</g>
	
		<radialGradient id="SVGID_00000088849632065460267570000002827331562728025774_" cx="18.9366" cy="22.6915" r="0.7013" gradientTransform="matrix(1 0 0 -1 0 40)" gradientUnits="userSpaceOnUse">
		<stop  offset="4.155676e-07" style="stop-color:#EC1C24"/>
		<stop  offset="0.1711" style="stop-color:#EC1F27;stop-opacity:0.8281"/>
		<stop  offset="0.3075" style="stop-color:#ED2931;stop-opacity:0.6911"/>
		<stop  offset="0.432" style="stop-color:#EF3A41;stop-opacity:0.566"/>
		<stop  offset="0.5495" style="stop-color:#F05258;stop-opacity:0.4481"/>
		<stop  offset="0.6619" style="stop-color:#F37075;stop-opacity:0.3352"/>
		<stop  offset="0.7706" style="stop-color:#F6969A;stop-opacity:0.2259"/>
		<stop  offset="0.8763" style="stop-color:#FAC3C5;stop-opacity:0.1198"/>
		<stop  offset="0.9771" style="stop-color:#FEF5F5;stop-opacity:1.847756e-02"/>
		<stop  offset="0.9955" style="stop-color:#FFFFFF;stop-opacity:0"/>
	</radialGradient>
	<circle style="fill:url(#SVGID_00000088849632065460267570000002827331562728025774_);" cx="18.9" cy="17.3" r="0.7"/>
</g>
<g>
	<path class="st0" d="M50.4,21.7c0-0.8-0.3-1.4-0.8-1.8c-0.5-0.4-1.5-0.8-2.9-1.3c-1.4-0.5-2.5-0.9-3.4-1.4C41.1,16,40,14.4,40,12.4
		c0-1.1,0.3-2,0.9-2.9s1.5-1.5,2.6-2c1.1-0.5,2.4-0.7,3.8-0.7c1.4,0,2.7,0.3,3.8,0.8s2,1.2,2.6,2.2c0.6,0.9,0.9,2,0.9,3.2h-4.1
		c0-0.9-0.3-1.6-0.9-2.1c-0.6-0.5-1.4-0.8-2.4-0.8c-1,0-1.8,0.2-2.3,0.6s-0.8,1-0.8,1.7c0,0.6,0.3,1.2,1,1.6
		c0.6,0.4,1.6,0.8,2.9,1.2c2.3,0.7,4,1.6,5.1,2.6c1.1,1,1.6,2.3,1.6,3.9c0,1.7-0.6,3.1-1.9,4s-3,1.5-5.2,1.5c-1.5,0-2.9-0.3-4.2-0.8
		S41,25,40.3,24c-0.7-1-1-2.1-1-3.4h4.1c0,2.2,1.3,3.3,3.9,3.3c1,0,1.7-0.2,2.3-0.6C50.2,22.9,50.4,22.4,50.4,21.7z"/>
	<path class="st0" d="M65.5,26.9c-0.2-0.4-0.3-0.8-0.4-1.3c-0.9,1.1-2.2,1.6-3.7,1.6c-1.4,0-2.6-0.4-3.6-1.2
		c-0.9-0.8-1.4-1.9-1.4-3.1c0-1.6,0.6-2.8,1.7-3.6s2.8-1.3,5-1.3H65v-0.8c0-0.7-0.2-1.2-0.5-1.6c-0.3-0.4-0.9-0.6-1.6-0.6
		c-0.7,0-1.2,0.2-1.6,0.5c-0.4,0.3-0.6,0.8-0.6,1.3h-3.9c0-0.9,0.3-1.6,0.8-2.4c0.5-0.7,1.3-1.3,2.2-1.7s2-0.6,3.2-0.6
		c1.8,0,3.2,0.5,4.3,1.4c1.1,0.9,1.6,2.2,1.6,3.8v6.4c0,1.4,0.2,2.4,0.6,3.2v0.2H65.5z M62.3,24.1c0.6,0,1.1-0.1,1.6-0.4
		s0.9-0.6,1.1-1v-2.5h-1.5c-2,0-3,0.7-3.1,2l0,0.2c0,0.5,0.2,0.9,0.5,1.2C61.2,24,61.7,24.1,62.3,24.1z"/>
	<path class="st0" d="M71.4,19.4c0-2.3,0.5-4.1,1.6-5.4s2.5-2.1,4.3-2.1c1.6,0,2.9,0.6,3.8,1.7l0.2-1.4h3.6v14.2
		c0,1.3-0.3,2.4-0.9,3.4c-0.6,1-1.4,1.7-2.5,2.2c-1.1,0.5-2.3,0.7-3.7,0.7c-1.1,0-2.1-0.2-3.1-0.6c-1-0.4-1.8-1-2.3-1.7L74,28
		c1,1.1,2.2,1.6,3.6,1.6c1,0,1.9-0.3,2.4-0.8s0.9-1.3,0.9-2.4v-0.8c-0.9,1-2.1,1.5-3.6,1.5c-1.8,0-3.2-0.7-4.3-2.1s-1.6-3.2-1.6-5.5
		V19.4z M75.3,19.7c0,1.3,0.3,2.4,0.8,3.1c0.5,0.8,1.3,1.1,2.2,1.1c1.2,0,2-0.4,2.6-1.3v-6.2c-0.5-0.9-1.4-1.3-2.5-1.3
		c-0.9,0-1.7,0.4-2.2,1.2C75.5,17,75.3,18.2,75.3,19.7z"/>
	<path class="st0" d="M94.5,27.1c-2.2,0-3.9-0.7-5.3-2s-2-3.1-2-5.3v-0.4c0-1.5,0.3-2.8,0.9-4c0.6-1.2,1.4-2.1,2.4-2.7
		s2.2-0.9,3.6-0.9c2,0,3.6,0.6,4.7,1.9c1.2,1.3,1.7,3.1,1.7,5.4v1.6h-9.4c0.1,1,0.5,1.7,1.1,2.3s1.4,0.9,2.4,0.9
		c1.5,0,2.7-0.5,3.5-1.6l1.9,2.2c-0.6,0.8-1.4,1.5-2.4,1.9C96.9,26.9,95.8,27.1,94.5,27.1z M94.1,15.1c-0.8,0-1.4,0.3-1.9,0.8
		c-0.5,0.5-0.8,1.3-0.9,2.3h5.5v-0.3c0-0.9-0.3-1.5-0.7-2C95.6,15.3,94.9,15.1,94.1,15.1z"/>
	<path class="st0" d="M118.6,20.3c-0.2,2.1-0.9,3.8-2.4,5s-3.3,1.8-5.6,1.8c-2.5,0-4.5-0.9-6-2.6c-1.5-1.7-2.2-4-2.2-7v-1.2
		c0-1.9,0.3-3.6,1-5c0.7-1.4,1.6-2.6,2.9-3.3c1.2-0.8,2.7-1.2,4.3-1.2c2.3,0,4.1,0.6,5.5,1.8c1.4,1.2,2.2,2.9,2.4,5.1h-4.1
		c-0.1-1.3-0.5-2.2-1.1-2.8c-0.6-0.6-1.5-0.9-2.8-0.9c-1.4,0-2.4,0.5-3,1.5c-0.7,1-1,2.5-1,4.5v1.5c0,2.1,0.3,3.7,1,4.7
		c0.6,1,1.7,1.5,3.1,1.5c1.3,0,2.2-0.3,2.8-0.9c0.6-0.6,1-1.5,1.1-2.7H118.6z"/>
	<path class="st0" d="M129.8,25.4c-1,1.2-2.3,1.8-4,1.8c-1.6,0-2.8-0.5-3.6-1.4c-0.8-0.9-1.3-2.2-1.3-4v-9.6h3.9v9.5
		c0,1.5,0.7,2.3,2.1,2.3c1.3,0,2.2-0.5,2.7-1.4V12.2h3.9v14.7h-3.7L129.8,25.4z"/>
	<path class="st0" d="M144.8,15.9c-0.5-0.1-1-0.1-1.4-0.1c-1.5,0-2.5,0.5-2.9,1.5v9.6h-3.9V12.2h3.7l0.1,1.8c0.8-1.3,1.9-2,3.3-2
		c0.4,0,0.8,0.1,1.2,0.2L144.8,15.9z"/>
	<path class="st0" d="M153.2,27.1c-2.2,0-3.9-0.7-5.3-2s-2-3.1-2-5.3v-0.4c0-1.5,0.3-2.8,0.9-4c0.6-1.2,1.4-2.1,2.4-2.7
		s2.2-0.9,3.6-0.9c2,0,3.6,0.6,4.7,1.9c1.2,1.3,1.7,3.1,1.7,5.4v1.6h-9.4c0.1,1,0.5,1.7,1.1,2.3s1.4,0.9,2.4,0.9
		c1.5,0,2.7-0.5,3.5-1.6l1.9,2.2c-0.6,0.8-1.4,1.5-2.4,1.9C155.5,26.9,154.4,27.1,153.2,27.1z M152.7,15.1c-0.8,0-1.4,0.3-1.9,0.8
		c-0.5,0.5-0.8,1.3-0.9,2.3h5.5v-0.3c0-0.9-0.3-1.5-0.7-2C154.2,15.3,153.6,15.1,152.7,15.1z"/>
</g>
</svg>
